<?xml version="1.0" encoding="UTF-8" standalone="no"?>
<!-- Created with Inkscape (http://www.inkscape.org/) -->

<svg
   xmlns:osb="http://www.openswatchbook.org/uri/2009/osb"
   xmlns:dc="http://purl.org/dc/elements/1.1/"
   xmlns:cc="http://creativecommons.org/ns#"
   xmlns:rdf="http://www.w3.org/1999/02/22-rdf-syntax-ns#"
   xmlns:svg="http://www.w3.org/2000/svg"
   xmlns="http://www.w3.org/2000/svg"
   xmlns:xlink="http://www.w3.org/1999/xlink"
   xmlns:sodipodi="http://sodipodi.sourceforge.net/DTD/sodipodi-0.dtd"
   xmlns:inkscape="http://www.inkscape.org/namespaces/inkscape"
   width="40.639999mm"
   height="128.5mm"
   viewBox="0 0 40.64 128.5"
   version="1.1"
   id="svg8"
   inkscape:version="0.92.1 r15371"
   sodipodi:docname="WoltModule.svg">
  <defs
     id="defs2">
    <linearGradient
       inkscape:collect="always"
       id="linearGradient4949"
       osb:paint="gradient">
      <stop
         style="stop-color:#191919;stop-opacity:1"
         offset="0"
         id="stop4945" />
      <stop
         style="stop-color:#2d2d2d;stop-opacity:1"
         offset="1"
         id="stop4947" />
    </linearGradient>
    <clipPath
       clipPathUnits="userSpaceOnUse"
       id="clipPath319-5">
      <path
         transform="matrix(-1.2591826,0,0,1.2121092,60.764669,45.515008)"
         inkscape:transform-center-y="9.5039877"
         d="m 5.6169264,-202.88821 -27.1615714,10e-6 -27.161572,-10e-6 13.580785,-23.52261 13.580787,-23.52261 13.5807862,23.52261 z"
         inkscape:randomized="0"
         inkscape:rounded="0"
         inkscape:flatsided="false"
         sodipodi:arg2="1.5707963"
         sodipodi:arg1="0.52359878"
         sodipodi:r2="15.681742"
         sodipodi:r1="31.363482"
         sodipodi:cy="-218.56995"
         sodipodi:cx="-21.544645"
         sodipodi:sides="3"
         id="path321-4"
         style="fill:#1a1a1a;stroke-width:0.26458332"
         sodipodi:type="star" />
    </clipPath>
    <linearGradient
       inkscape:collect="always"
       xlink:href="#linearGradient4949"
       id="linearGradient4955"
       gradientUnits="userSpaceOnUse"
       x1="17.644678"
       y1="96.578667"
       x2="17.644678"
       y2="16.167381" />
  </defs>
  <sodipodi:namedview
     id="base"
     pagecolor="#ffffff"
     bordercolor="#666666"
     borderopacity="1.0"
     inkscape:pageopacity="0.0"
     inkscape:pageshadow="2"
     inkscape:zoom="0.98994949"
     inkscape:cx="515.62814"
     inkscape:cy="270.19439"
     inkscape:document-units="mm"
     inkscape:current-layer="layer3"
     showgrid="false"
     fit-margin-top="0"
     fit-margin-left="0"
     fit-margin-right="0"
     fit-margin-bottom="0"
     inkscape:window-width="1920"
     inkscape:window-height="1053"
     inkscape:window-x="3840"
     inkscape:window-y="1044"
     inkscape:window-maximized="0"
     showguides="false">
    <inkscape:grid
       type="xygrid"
       id="grid23" />
  </sodipodi:namedview>
  <metadata
     id="metadata5">
    <rdf:RDF>
      <cc:Work
         rdf:about="">
        <dc:format>image/svg+xml</dc:format>
        <dc:type
           rdf:resource="http://purl.org/dc/dcmitype/StillImage" />
        <dc:title></dc:title>
      </cc:Work>
    </rdf:RDF>
  </metadata>
  <g
     inkscape:groupmode="layer"
     id="layer3"
     inkscape:label="Calque 2">
    <rect
       style="fill:url(#linearGradient4955);stroke-width:1.0236001;fill-opacity:1"
       id="rect13"
       width="40.82143"
       height="128.7009"
       x="0"
       y="-0.20089722" />
    <g
       aria-label=".:sas:."
       style="font-style:normal;font-variant:normal;font-weight:normal;font-stretch:normal;font-size:10.58333302px;line-height:1.25;font-family:'Nimbus Sans L';-inkscape-font-specification:'Nimbus Sans L';letter-spacing:0px;word-spacing:0px;fill:#b3b3b3;fill-opacity:1;stroke:none;stroke-width:0.26458332"
       id="text4959"
       transform="matrix(0.4782969,0,0,0.4782969,10.669096,71.603225)">
      <path
         d="M 8.0879201,115.54977 H 6.9872535 v 1.10067 h 1.1006666 z"
         style="fill:#b3b3b3;stroke-width:0.26458332"
         id="path4987"
         inkscape:connector-curvature="0" />
      <path
         d="m 11.266558,115.54977 h -1.100667 v 1.10067 h 1.100667 z m 0,-4.445 h -1.100667 v 1.10067 h 1.100667 z"
         style="fill:#b3b3b3;stroke-width:0.26458332"
         id="path4989"
         inkscape:connector-curvature="0" />
      <path
         d="m 16.572446,112.64994 c -0.01058,-1.09009 -0.73025,-1.70392 -2.010833,-1.70392 -1.291167,0 -2.12725,0.66675 -2.12725,1.69333 0,0.86784 0.4445,1.28059 1.756833,1.59809 l 0.8255,0.20108 c 0.613833,0.14817 0.85725,0.37042 0.85725,0.77258 0,0.51859 -0.518584,0.86784 -1.291167,0.86784 -0.47625,0 -0.878416,-0.13759 -1.100666,-0.37042 -0.137584,-0.15875 -0.201084,-0.3175 -0.254,-0.70908 h -0.931334 c 0.04233,1.28058 0.762,1.89441 2.211917,1.89441 1.397,0 2.286,-0.68791 2.286,-1.75683 0,-0.8255 -0.465667,-1.28058 -1.566334,-1.54517 l -0.846666,-0.20108 c -0.719667,-0.16933 -1.026583,-0.40217 -1.026583,-0.79375 0,-0.508 0.455083,-0.83608 1.17475,-0.83608 0.709083,0 1.090083,0.30691 1.111249,0.889 z"
         style="fill:#b3b3b3;stroke-width:0.26458332"
         id="path4991"
         inkscape:connector-curvature="0" />
      <path
         d="m 22.890696,116.13185 c -0.09525,0.0212 -0.137583,0.0212 -0.1905,0.0212 -0.306917,0 -0.47625,-0.15875 -0.47625,-0.43392 v -3.25966 c 0,-0.98425 -0.719667,-1.51342 -2.084917,-1.51342 -0.804333,0 -1.471083,0.23283 -1.841499,0.64558 -0.254,0.28575 -0.359834,0.60325 -0.381,1.15359 h 0.889 c 0.07408,-0.67734 0.47625,-0.98425 1.301749,-0.98425 0.79375,0 1.23825,0.29633 1.23825,0.8255 v 0.23283 c 0,0.37042 -0.22225,0.52917 -0.92075,0.61383 -1.248833,0.15875 -1.439333,0.20109 -1.777999,0.33867 -0.645584,0.26458 -0.973667,0.762 -0.973667,1.48167 0,1.00541 0.6985,1.64041 1.820333,1.64041 0.6985,0 1.259417,-0.24341 1.883833,-0.81491 0.0635,0.56091 0.338667,0.81491 0.910167,0.81491 0.179917,0 0.3175,-0.0212 0.60325,-0.0953 z m -1.545167,-1.22766 c 0,0.29633 -0.08467,0.47625 -0.34925,0.71966 -0.359833,0.32809 -0.79375,0.49742 -1.312333,0.49742 -0.687916,0 -1.090083,-0.32808 -1.090083,-0.889 0,-0.58208 0.391583,-0.87842 1.3335,-1.016 0.931333,-0.127 1.121833,-0.16933 1.418166,-0.30692 z"
         style="fill:#b3b3b3;stroke-width:0.26458332"
         id="path4993"
         inkscape:connector-curvature="0" />
      <path
         d="m 27.755226,112.64994 c -0.01058,-1.09009 -0.73025,-1.70392 -2.010833,-1.70392 -1.291167,0 -2.12725,0.66675 -2.12725,1.69333 0,0.86784 0.4445,1.28059 1.756833,1.59809 l 0.8255,0.20108 c 0.613833,0.14817 0.85725,0.37042 0.85725,0.77258 0,0.51859 -0.518583,0.86784 -1.291167,0.86784 -0.47625,0 -0.878416,-0.13759 -1.100666,-0.37042 -0.137584,-0.15875 -0.201084,-0.3175 -0.254,-0.70908 H 23.47956 c 0.04233,1.28058 0.761999,1.89441 2.211916,1.89441 1.397,0 2.286,-0.68791 2.286,-1.75683 0,-0.8255 -0.465667,-1.28058 -1.566333,-1.54517 l -0.846667,-0.20108 c -0.719667,-0.16933 -1.026583,-0.40217 -1.026583,-0.79375 0,-0.508 0.455083,-0.83608 1.17475,-0.83608 0.709083,0 1.090083,0.30691 1.11125,0.889 z"
         style="fill:#b3b3b3;stroke-width:0.26458332"
         id="path4995"
         inkscape:connector-curvature="0" />
      <path
         d="m 30.676225,115.54977 h -1.100666 v 1.10067 h 1.100666 z m 0,-4.445 h -1.100666 v 1.10067 h 1.100666 z"
         style="fill:#b3b3b3;stroke-width:0.26458332"
         id="path4997"
         inkscape:connector-curvature="0" />
      <path
         d="m 33.36803,115.54977 h -1.100667 v 1.10067 h 1.100667 z"
         style="fill:#b3b3b3;stroke-width:0.26458332"
         id="path4999"
         inkscape:connector-curvature="0" />
    </g>
  </g>
  <g
     inkscape:label="Calque 1"
     inkscape:groupmode="layer"
     id="layer1"
     transform="translate(0,-168.5)"
     style="display:inline">
    <path
       style="display:inline;opacity:1;fill:#e6e6e6;stroke:#999999;stroke-width:0.2;stroke-miterlimit:4;stroke-dasharray:none;stroke-opacity:1"
       d="m 20.320619,223.2631 a 25.796875,25.796875 0 0 0 -18.4767005,7.7972 l 13.0582725,13.05827 a 7.3421879,7.3421879 0 0 1 5.418428,-2.40047 7.3421879,7.3421879 0 0 1 5.41843,2.39939 L 38.779958,231.07712 A 25.796875,25.796875 0 0 0 20.320619,223.2631 Z"
       id="circle104"
       inkscape:connector-curvature="0" />
    <g
       id="g4741"
       transform="matrix(0.95,0,0,0.95,1.0155969,13.146722)"
       style="fill:#ffffff">
      <g
         id="text128"
         style="font-style:normal;font-variant:normal;font-weight:normal;font-stretch:normal;font-size:2.82222223px;line-height:1.25;font-family:'Nimbus Sans L';-inkscape-font-specification:'Nimbus Sans L';text-align:center;letter-spacing:0px;word-spacing:0px;text-anchor:middle;fill:#ffffff;fill-opacity:1;stroke:none;stroke-width:0.26458332"
         aria-label="0">
        <path
           id="path4710"
           style="font-size:2.82222223px;text-align:center;text-anchor:middle;fill:#ffffff;stroke-width:0.26458332"
           d="m 20.405634,216.56019 c -0.186267,0 -0.3556,0.0818 -0.460022,0.22013 -0.129822,0.17498 -0.194733,0.44309 -0.194733,0.8128 0,0.67451 0.225777,1.03293 0.654755,1.03293 0.423333,0 0.654756,-0.35842 0.654756,-1.016 0,-0.38946 -0.06209,-0.64911 -0.194734,-0.82973 -0.104422,-0.14111 -0.270933,-0.22013 -0.460022,-0.22013 z m 0,0.22013 c 0.268111,0 0.400756,0.27093 0.400756,0.80716 0,0.56726 -0.129823,0.83255 -0.4064,0.83255 -0.262467,0 -0.395111,-0.27658 -0.395111,-0.82409 0,-0.54751 0.132644,-0.81562 0.400755,-0.81562 z"
           inkscape:connector-curvature="0" />
      </g>
      <g
         id="text132"
         style="font-style:normal;font-variant:normal;font-weight:normal;font-stretch:normal;font-size:2.82222223px;line-height:1.25;font-family:'Nimbus Sans L';-inkscape-font-specification:'Nimbus Sans L';text-align:center;letter-spacing:0px;word-spacing:0px;text-anchor:middle;fill:#ffffff;fill-opacity:1;stroke:none;stroke-width:0.26458332"
         aria-label="-5">
        <path
           id="path4705"
           style="font-size:2.82222223px;text-align:center;text-anchor:middle;fill:#ffffff;stroke-width:0.26458332"
           d="m 11.151777,219.13445 h -0.671689 v 0.2032 h 0.671689 z"
           inkscape:connector-curvature="0" />
        <path
           id="path4707"
           style="font-size:2.82222223px;text-align:center;text-anchor:middle;fill:#ffffff;stroke-width:0.26458332"
           d="m 12.636222,218.01403 h -1.032934 l -0.149577,1.08938 h 0.2286 c 0.115711,-0.13829 0.211666,-0.18627 0.366888,-0.18627 0.268112,0 0.437445,0.18344 0.437445,0.47978 0,0.28786 -0.166511,0.46284 -0.437445,0.46284 -0.217311,0 -0.349955,-0.11006 -0.409222,-0.33584 h -0.248355 c 0.03387,0.16369 0.06209,0.24271 0.121355,0.31609 0.112889,0.1524 0.316089,0.23989 0.541867,0.23989 0.403578,0 0.6858,-0.29352 0.6858,-0.71685 0,-0.39511 -0.262467,-0.66604 -0.646289,-0.66604 -0.141111,0 -0.254,0.0367 -0.369711,0.12135 l 0.07902,-0.5588 h 0.832556 z"
           inkscape:connector-curvature="0" />
      </g>
      <g
         id="text136"
         style="font-style:normal;font-variant:normal;font-weight:normal;font-stretch:normal;font-size:2.82222223px;line-height:1.25;font-family:'Nimbus Sans L';-inkscape-font-specification:'Nimbus Sans L';text-align:center;letter-spacing:0px;word-spacing:0px;text-anchor:middle;fill:#ffffff;fill-opacity:1;stroke:none;stroke-width:0.26458332"
         aria-label="+5">
        <path
           id="path4713"
           style="font-size:2.82222223px;text-align:center;text-anchor:middle;fill:#ffffff;stroke-width:0.26458332"
           d="m 28.655144,219.26145 h -0.5842 v -0.5842 h -0.197556 v 0.5842 h -0.5842 v 0.19756 h 0.5842 v 0.5842 h 0.197556 v -0.5842 h 0.5842 z"
           inkscape:connector-curvature="0" />
        <path
           id="path4715"
           style="font-size:2.82222223px;text-align:center;text-anchor:middle;fill:#ffffff;stroke-width:0.26458332"
           d="m 30.139588,218.01403 h -1.032933 l -0.149578,1.08938 h 0.2286 c 0.115711,-0.13829 0.211667,-0.18627 0.366889,-0.18627 0.268111,0 0.437445,0.18344 0.437445,0.47978 0,0.28786 -0.166512,0.46284 -0.437445,0.46284 -0.217311,0 -0.349955,-0.11006 -0.409222,-0.33584 h -0.248356 c 0.03387,0.16369 0.06209,0.24271 0.121356,0.31609 0.112889,0.1524 0.316089,0.23989 0.541867,0.23989 0.403577,0 0.6858,-0.29352 0.6858,-0.71685 0,-0.39511 -0.262467,-0.66604 -0.646289,-0.66604 -0.141111,0 -0.254,0.0367 -0.369711,0.12135 l 0.07902,-0.5588 h 0.832555 z"
           inkscape:connector-curvature="0" />
      </g>
      <g
         id="text140"
         style="font-style:normal;font-variant:normal;font-weight:normal;font-stretch:normal;font-size:2.82222223px;line-height:1.25;font-family:'Nimbus Sans L';-inkscape-font-specification:'Nimbus Sans L';text-align:center;letter-spacing:0px;word-spacing:0px;text-anchor:middle;fill:#ffffff;fill-opacity:1;stroke:none;stroke-width:0.26458332"
         aria-label="+10">
        <path
           id="path4718"
           style="font-size:2.82222223px;text-align:center;text-anchor:middle;fill:#ffffff;stroke-width:0.26458332"
           d="m 36.305911,223.82351 h -0.5842 v -0.5842 h -0.197556 v 0.5842 h -0.5842 v 0.19755 h 0.5842 v 0.5842 h 0.197556 v -0.5842 h 0.5842 z"
           inkscape:connector-curvature="0" />
        <path
           id="path4720"
           style="font-size:2.82222223px;text-align:center;text-anchor:middle;fill:#ffffff;stroke-width:0.26458332"
           d="m 37.177933,223.15182 v 1.42522 h 0.248356 v -2.00095 H 37.2626 c -0.08749,0.30762 -0.143934,0.34995 -0.527756,0.39793 v 0.1778 z"
           inkscape:connector-curvature="0" />
        <path
           id="path4722"
           style="font-size:2.82222223px;text-align:center;text-anchor:middle;fill:#ffffff;stroke-width:0.26458332"
           d="m 38.794052,222.57609 c -0.186266,0 -0.3556,0.0818 -0.460022,0.22013 -0.129822,0.17498 -0.194733,0.44309 -0.194733,0.8128 0,0.67451 0.225777,1.03293 0.654755,1.03293 0.423334,0 0.654756,-0.35842 0.654756,-1.016 0,-0.38946 -0.06209,-0.64911 -0.194734,-0.82973 -0.104422,-0.14111 -0.270933,-0.22013 -0.460022,-0.22013 z m 0,0.22013 c 0.268111,0 0.400756,0.27093 0.400756,0.80715 0,0.56727 -0.129822,0.83256 -0.4064,0.83256 -0.262467,0 -0.395111,-0.27658 -0.395111,-0.82409 0,-0.54751 0.132644,-0.81562 0.400755,-0.81562 z"
           inkscape:connector-curvature="0" />
      </g>
      <g
         id="text144"
         style="font-style:normal;font-variant:normal;font-weight:normal;font-stretch:normal;font-size:2.82222223px;line-height:1.25;font-family:'Nimbus Sans L';-inkscape-font-specification:'Nimbus Sans L';text-align:center;letter-spacing:0px;word-spacing:0px;text-anchor:middle;fill:#ffffff;fill-opacity:1;stroke:none;stroke-width:0.26458332"
         aria-label="-10">
        <path
           id="path4698"
           style="font-size:2.82222223px;text-align:center;text-anchor:middle;fill:#ffffff;stroke-width:0.26458332"
           d="M 1.8467565,223.69651 H 1.1750676 v 0.2032 h 0.6716889 z"
           inkscape:connector-curvature="0" />
        <path
           id="path4700"
           style="font-size:2.82222223px;text-align:center;text-anchor:middle;fill:#ffffff;stroke-width:0.26458332"
           d="m 2.718779,223.15182 v 1.42522 h 0.2483556 v -2.00095 H 2.8034457 c -0.087489,0.30762 -0.1439333,0.34995 -0.5277556,0.39793 v 0.1778 z"
           inkscape:connector-curvature="0" />
        <path
           id="path4702"
           style="font-size:2.82222223px;text-align:center;text-anchor:middle;fill:#ffffff;stroke-width:0.26458332"
           d="m 4.3348982,222.57609 c -0.1862667,0 -0.3556001,0.0818 -0.4600223,0.22013 -0.1298222,0.17498 -0.1947333,0.44309 -0.1947333,0.8128 0,0.67451 0.2257778,1.03293 0.6547556,1.03293 0.4233333,0 0.6547555,-0.35842 0.6547555,-1.016 0,-0.38946 -0.062089,-0.64911 -0.1947333,-0.82973 -0.1044222,-0.14111 -0.2709334,-0.22013 -0.4600222,-0.22013 z m 0,0.22013 c 0.2681111,0 0.4007555,0.27093 0.4007555,0.80715 0,0.56727 -0.1298222,0.83256 -0.4064,0.83256 -0.2624667,0 -0.3951111,-0.27658 -0.3951111,-0.82409 0,-0.54751 0.1326444,-0.81562 0.4007556,-0.81562 z"
           inkscape:connector-curvature="0" />
      </g>
    </g>
    <g
       aria-label="WOLT"
       style="font-style:normal;font-variant:normal;font-weight:bold;font-stretch:normal;font-size:5.64444447px;line-height:1.25;font-family:'Nimbus Sans L';-inkscape-font-specification:'Nimbus Sans L Bold';text-align:center;letter-spacing:0px;word-spacing:0px;text-anchor:middle;fill:#ffffff;fill-opacity:1;stroke:none;stroke-width:0.26458332"
       id="text4926"
       transform="matrix(0.81450625,0,0,0.81450625,3.769233,32.116036)">
      <path
         d="m 16.396146,175.03781 1.068917,-3.85762 h -0.841375 l -0.576792,2.89454 -0.624417,-2.89454 h -0.783166 l -0.597959,2.88925 -0.597958,-2.88925 h -0.841375 l 1.090083,3.85762 h 0.714375 l 0.629709,-3.01096 0.645583,3.01096 z"
         style="font-style:normal;font-variant:normal;font-weight:bold;font-stretch:normal;font-size:5.29166651px;font-family:'Nimbus Sans L';-inkscape-font-specification:'Nimbus Sans L Bold';text-align:center;text-anchor:middle;fill:#ffffff;stroke-width:0.26458332"
         id="path4936"
         inkscape:connector-curvature="0" />
      <path
         d="m 19.588923,171.11669 c -0.53975,0 -0.98425,0.17991 -1.312334,0.53445 -0.343958,0.37042 -0.53975,0.91017 -0.53975,1.48696 0,0.57679 0.195792,1.12184 0.53975,1.48696 0.333375,0.35983 0.767292,0.53446 1.317625,0.53446 0.550334,0 0.98425,-0.17463 1.317625,-0.53446 0.333375,-0.35454 0.53975,-0.91546 0.53975,-1.4605 0,-0.60325 -0.195791,-1.143 -0.53975,-1.51342 -0.338666,-0.36512 -0.767291,-0.53445 -1.322916,-0.53445 z m 0.0053,0.67733 c 0.650875,0 1.063625,0.52917 1.063625,1.36525 0,0.78846 -0.428625,1.32292 -1.063625,1.32292 -0.640291,0 -1.063625,-0.53446 -1.063625,-1.34409 0,-0.80962 0.423334,-1.34408 1.063625,-1.34408 z"
         style="font-style:normal;font-variant:normal;font-weight:bold;font-stretch:normal;font-size:5.29166651px;font-family:'Nimbus Sans L';-inkscape-font-specification:'Nimbus Sans L Bold';text-align:center;text-anchor:middle;fill:#ffffff;stroke-width:0.26458332"
         id="path4938"
         inkscape:connector-curvature="0" />
      <path
         d="m 22.855699,171.18019 h -0.79375 v 3.85762 h 2.640542 v -0.66146 h -1.846792 z"
         style="font-style:normal;font-variant:normal;font-weight:bold;font-stretch:normal;font-size:5.29166651px;font-family:'Nimbus Sans L';-inkscape-font-specification:'Nimbus Sans L Bold';text-align:center;text-anchor:middle;fill:#ffffff;stroke-width:0.26458332"
         id="path4940"
         inkscape:connector-curvature="0" />
      <path
         d="m 26.910853,171.84164 h 1.127125 v -0.66145 h -3.090333 v 0.66145 h 1.169458 v 3.19617 h 0.79375 z"
         style="font-style:normal;font-variant:normal;font-weight:bold;font-stretch:normal;font-size:5.29166651px;font-family:'Nimbus Sans L';-inkscape-font-specification:'Nimbus Sans L Bold';text-align:center;text-anchor:middle;fill:#ffffff;stroke-width:0.26458332"
         id="path4942"
         inkscape:connector-curvature="0" />
    </g>
  </g>
  <g
     inkscape:groupmode="layer"
     id="layer2"
     inkscape:label="components"
     style="display:none;opacity:0.37900002">
    <circle
       id="path3711"
       cx="20.32"
       cy="113.30534"
       r="9.260417"
       style="fill:#00ff00;stroke-width:0.26458332"
       inkscape:label="inputOne" />
  </g>
</svg>
